<svg width="14" height="19" viewBox="0 0 14 19" fill="none" xmlns="http://www.w3.org/2000/svg">
<path d="M2.1875 0.25H12.3125C13.2266 0.25 14 1.02344 14 1.9375V16.5625C14 17.5117 13.2266 18.25 12.3125 18.25H8.9375V15.4375C8.9375 14.5234 8.16406 13.75 7.25 13.75C6.30078 13.75 5.5625 14.5234 5.5625 15.4375V18.25H2.1875C1.23828 18.25 0.5 17.5117 0.5 16.5625V1.9375C0.5 1.02344 1.23828 0.25 2.1875 0.25ZM2.75 8.6875V9.8125C2.75 10.1289 2.99609 10.375 3.3125 10.375H4.4375C4.71875 10.375 5 10.1289 5 9.8125V8.6875C5 8.40625 4.71875 8.125 4.4375 8.125H3.3125C2.99609 8.125 2.75 8.40625 2.75 8.6875ZM6.6875 8.125C6.37109 8.125 6.125 8.40625 6.125 8.6875V9.8125C6.125 10.1289 6.37109 10.375 6.6875 10.375H7.8125C8.09375 10.375 8.375 10.1289 8.375 9.8125V8.6875C8.375 8.40625 8.09375 8.125 7.8125 8.125H6.6875ZM9.5 8.6875V9.8125C9.5 10.1289 9.74609 10.375 10.0625 10.375H11.1875C11.4688 10.375 11.75 10.1289 11.75 9.8125V8.6875C11.75 8.40625 11.4688 8.125 11.1875 8.125H10.0625C9.74609 8.125 9.5 8.40625 9.5 8.6875ZM3.3125 3.625C2.99609 3.625 2.75 3.90625 2.75 4.1875V5.3125C2.75 5.62891 2.99609 5.875 3.3125 5.875H4.4375C4.71875 5.875 5 5.62891 5 5.3125V4.1875C5 3.90625 4.71875 3.625 4.4375 3.625H3.3125ZM6.125 4.1875V5.3125C6.125 5.62891 6.37109 5.875 6.6875 5.875H7.8125C8.09375 5.875 8.375 5.62891 8.375 5.3125V4.1875C8.375 3.90625 8.09375 3.625 7.8125 3.625H6.6875C6.37109 3.625 6.125 3.90625 6.125 4.1875ZM10.0625 3.625C9.74609 3.625 9.5 3.90625 9.5 4.1875V5.3125C9.5 5.62891 9.74609 5.875 10.0625 5.875H11.1875C11.4688 5.875 11.75 5.62891 11.75 5.3125V4.1875C11.75 3.90625 11.4688 3.625 11.1875 3.625H10.0625Z" fill="#6836FF"/>
</svg>
