<svg width="168" height="164" viewBox="0 0 168 164" fill="none" xmlns="http://www.w3.org/2000/svg" xmlns:xlink="http://www.w3.org/1999/xlink">
<path d="M119.706,0.596L48.136,0.596C21.85,0.596 0.54,21.401 0.54,47.064L0.54,116.936C0.54,142.599 21.85,163.404 48.136,163.404L119.706,163.404C145.993,163.404 167.302,142.599 167.302,116.936L167.302,47.064C167.302,21.401 145.993,0.596 119.706,0.596Z" fill="#6836FF"/>
<path d="M53.376,37.322L82.626,37.322C107.674,37.322 128.815,56.155 130.352,80.572C132.036,107.376 110.247,129.642 83.163,129.642L53.394,129.642C50.469,129.642 48.118,127.329 48.118,124.491L48.118,42.473C48.118,39.617 50.488,37.322 53.394,37.322L53.376,37.322ZM78.09,105.767L82.941,105.767C93.845,105.767 103.416,98.285 105.359,87.802C107.896,74.156 96.973,62.065 83.274,62.065L78.09,62.065C75.165,62.065 72.814,64.378 72.814,67.216L72.814,100.598C72.814,103.454 75.184,105.749 78.09,105.749L78.09,105.767Z" fill="#FFFFFF"/>
<path d="M101.915,53.462C108.602,53.462 114.022,48.17 114.022,41.642C114.022,35.114 108.602,29.822 101.915,29.822C95.228,29.822 89.808,35.114 89.808,41.642C89.808,48.17 95.228,53.462 101.915,53.462Z" fill="#FCB72B"/>
</svg>
