<svg width="140" height="140" viewBox="0 0 140 140" fill="none" xmlns="http://www.w3.org/2000/svg" xmlns:xlink="http://www.w3.org/1999/xlink">
<rect  x="9" y="9.582" width="118" height="118" rx="39" fill="#FFFFFF" stroke="#6836FF" stroke-width="1" stroke-miterlimit="3.999327"/>
<path d="M85.705,31.582L52.295,31.582C40.024,31.582 30.077,41.293 30.077,53.273L30.077,85.89C30.077,97.87 40.024,107.582 52.295,107.582L85.705,107.582C97.975,107.582 107.923,97.87 107.923,85.89L107.923,53.273C107.923,41.293 97.975,31.582 85.705,31.582Z" fill="#6836FF"/>
<path d="M54.741,48.726L68.395,48.726C80.088,48.726 89.957,57.517 90.674,68.915C91.46,81.427 81.289,91.822 68.646,91.822L54.75,91.822C53.384,91.822 52.287,90.742 52.287,89.417L52.287,51.13C52.287,49.797 53.393,48.726 54.75,48.726L54.741,48.726ZM66.278,80.676L68.542,80.676C73.632,80.676 78.1,77.183 79.007,72.29C80.191,65.92 75.093,60.276 68.698,60.276L66.278,60.276C64.912,60.276 63.815,61.356 63.815,62.68L63.815,78.263C63.815,79.596 64.921,80.668 66.278,80.668L66.278,80.676Z" fill="#FFFFFF"/>
<path d="M77.399,56.26C80.521,56.26 83.051,53.789 83.051,50.742C83.051,47.695 80.521,45.224 77.399,45.224C74.278,45.224 71.748,47.695 71.748,50.742C71.748,53.789 74.278,56.26 77.399,56.26Z" fill="#FCB72B"/>
</svg>
